<mxfile host="Electron" agent="Mozilla/5.0 (Windows NT 10.0; Win64; x64) AppleWebKit/537.36 (KHTML, like Gecko) draw.io/24.7.17 Chrome/128.0.6613.36 Electron/32.0.1 Safari/537.36" version="24.7.17">
  <diagram name="Page-1" id="c37626ed-c26b-45fb-9056-f9ebc6bb27b6">
    <mxGraphModel dx="1687" dy="1040" grid="1" gridSize="10" guides="1" tooltips="1" connect="1" arrows="1" fold="1" page="1" pageScale="1" pageWidth="1100" pageHeight="850" background="none" math="0" shadow="0">
      <root>
        <mxCell id="0" />
        <mxCell id="1" parent="0" />
        <mxCell id="Lrz4ZemrAI1kfNQFsWgv-1" value="" style="fontColor=#0066CC;verticalAlign=top;verticalLabelPosition=bottom;labelPosition=center;align=center;html=1;outlineConnect=0;fillColor=#CCCCCC;strokeColor=#6881B3;gradientColor=none;gradientDirection=north;strokeWidth=2;shape=mxgraph.networks.server_storage;" vertex="1" parent="1">
          <mxGeometry x="80" y="160" width="105" height="105" as="geometry" />
        </mxCell>
        <mxCell id="Lrz4ZemrAI1kfNQFsWgv-2" value="" style="fontColor=#0066CC;verticalAlign=top;verticalLabelPosition=bottom;labelPosition=center;align=center;html=1;outlineConnect=0;fillColor=#CCCCCC;strokeColor=#6881B3;gradientColor=none;gradientDirection=north;strokeWidth=2;shape=mxgraph.networks.server_storage;" vertex="1" parent="1">
          <mxGeometry x="400" y="160" width="105" height="105" as="geometry" />
        </mxCell>
        <mxCell id="Lrz4ZemrAI1kfNQFsWgv-3" value="" style="fontColor=#0066CC;verticalAlign=top;verticalLabelPosition=bottom;labelPosition=center;align=center;html=1;outlineConnect=0;fillColor=#CCCCCC;strokeColor=#6881B3;gradientColor=none;gradientDirection=north;strokeWidth=2;shape=mxgraph.networks.server_storage;" vertex="1" parent="1">
          <mxGeometry x="720" y="160" width="105" height="105" as="geometry" />
        </mxCell>
        <mxCell id="Lrz4ZemrAI1kfNQFsWgv-4" value="cluster-master" style="text;html=1;align=center;verticalAlign=middle;whiteSpace=wrap;rounded=0;" vertex="1" parent="1">
          <mxGeometry x="200" y="160" width="80" height="30" as="geometry" />
        </mxCell>
        <mxCell id="Lrz4ZemrAI1kfNQFsWgv-5" value="192.168.1.50/24&lt;div&gt;cluster-master.nroca.home&lt;/div&gt;" style="text;html=1;align=left;verticalAlign=middle;whiteSpace=wrap;rounded=0;" vertex="1" parent="1">
          <mxGeometry x="200" y="190" width="150" height="30" as="geometry" />
        </mxCell>
        <mxCell id="Lrz4ZemrAI1kfNQFsWgv-6" value="cluster-slave1" style="text;html=1;align=center;verticalAlign=middle;whiteSpace=wrap;rounded=0;" vertex="1" parent="1">
          <mxGeometry x="520" y="160" width="80" height="30" as="geometry" />
        </mxCell>
        <mxCell id="Lrz4ZemrAI1kfNQFsWgv-7" value="192.168.1.51/24&lt;div&gt;cluster-slave1.nroca.home&lt;/div&gt;" style="text;html=1;align=left;verticalAlign=middle;whiteSpace=wrap;rounded=0;" vertex="1" parent="1">
          <mxGeometry x="520" y="190" width="150" height="30" as="geometry" />
        </mxCell>
        <mxCell id="Lrz4ZemrAI1kfNQFsWgv-8" value="cluster-slave2" style="text;html=1;align=center;verticalAlign=middle;whiteSpace=wrap;rounded=0;" vertex="1" parent="1">
          <mxGeometry x="840" y="160" width="80" height="30" as="geometry" />
        </mxCell>
        <mxCell id="Lrz4ZemrAI1kfNQFsWgv-9" value="192.168.1.52/24&lt;div&gt;cluster-slave2.nroca.home&lt;/div&gt;" style="text;html=1;align=left;verticalAlign=middle;whiteSpace=wrap;rounded=0;" vertex="1" parent="1">
          <mxGeometry x="840" y="190" width="150" height="30" as="geometry" />
        </mxCell>
      </root>
    </mxGraphModel>
  </diagram>
</mxfile>
